<?xml version="1.0" encoding="utf-8"?>
<!-- Generator: Adobe Illustrator 26.1.0, SVG Export Plug-In . SVG Version: 6.00 Build 0)  -->
<svg version="1.1" xmlns="http://www.w3.org/2000/svg" xmlns:xlink="http://www.w3.org/1999/xlink" x="0px" y="0px"
	 viewBox="0 0 2834.65 283.46" style="enable-background:new 0 0 2834.65 283.46;" xml:space="preserve">
<style type="text/css">
	.st0{fill:transparent;}
	.st1{fill:#FFFFFF;}
	.st2{fill:#FFFFFF;}
	.st3{fill:#FFFFFF;}
	.st4{fill:#FFFFFF;}
	.st5{fill:#FFFFFF;}
</style>
<g id="背景">
	<rect x="0" class="st0" width="2834.65" height="283.46"/>
</g>
<g id="レイヤー_1">
	<g>
		<polygon class="st1" points="1925.87,83.64 1925.55,83.84 1925.87,84.04 		"/>
		<polygon class="st0" points="1925.23,83.64 1925.23,84.04 1925.55,83.84 		"/>
		<path class="st0" d="M1924.26,238.05h-0.64H1924.26z"/>
		<g>
			<g>
				<path class="st2" d="M2282.71,54.15c16.14,0,33.96,2.23,48.71,15.31c15.87,13.92,18.09,32.29,18.09,45.09
					c0,23.38-8.91,36.46-15.87,43.7c-14.75,15.03-34.24,16.42-47.32,16.42h-26.16v65.13h-42.87V54.15H2282.71z M2260.17,139.6h15.31
					c5.84,0,16.14-0.28,23.1-6.96c3.9-3.9,6.96-10.3,6.96-18.37c0-7.79-2.78-14.2-6.96-18.09c-6.4-6.12-15.59-6.96-23.94-6.96
					h-14.47V139.6z"/>
				<path class="st2" d="M2440.81,54.15v185.66h-40.08V54.15H2440.81z"/>
				<path class="st2" d="M2541.01,115.66v68.47c0,5.57,0.56,14.2,6.96,20.04c2.78,2.5,7.79,5.84,16.7,5.84
					c7.51,0,13.36-2.5,16.98-5.84c5.84-5.57,6.68-13.92,6.68-20.04v-68.47h40.08v72.37c0,14.2-1.39,27.56-13.92,39.8
					c-14.2,13.92-35.07,16.14-49.82,16.14c-15.31,0-35.91-2.23-50.1-16.14c-11.41-11.13-13.64-23.66-13.64-37.3v-74.87H2541.01z"/>
				<path class="st2" d="M2763.4,147.39c-6.12-3.62-14.2-6.96-21.99-6.96c-4.17,0-8.91,1.11-11.41,3.62
					c-1.39,1.39-2.5,3.62-2.5,5.57c0,2.78,1.95,4.45,3.9,5.57c2.78,1.67,6.96,2.51,11.97,4.18l10.58,3.34
					c6.96,2.23,14.2,5.01,20.6,10.86c7.24,6.68,9.74,14.2,9.74,23.66c0,16.42-7.24,27-12.8,32.57
					c-12.25,12.25-27.28,14.2-40.36,14.2c-16.7,0-34.79-3.62-50.94-17.81l16.98-27c3.9,3.34,9.46,7.24,13.64,9.19
					c5.57,2.78,11.41,3.9,16.7,3.9c2.5,0,8.91,0,12.53-2.78c2.5-1.95,4.17-5.01,4.17-8.07c0-2.23-0.83-5.01-4.45-7.24
					c-2.78-1.67-6.4-2.78-12.25-4.45l-10.02-3.06c-7.24-2.23-14.75-6.12-20.04-11.41c-5.84-6.12-8.91-13.08-8.91-22.55
					c0-11.97,4.73-21.99,11.97-28.67c11.13-10.3,26.16-12.53,37.58-12.53c18.37,0,31.18,4.73,41.2,10.58L2763.4,147.39z"/>
			</g>
			<path class="st3" d="M2005.84,107.53c0.61-4.23,0.83-7.31,0.55-11.74c-2.19-34.51-31.95-60.71-66.46-58.52
				c-34.51,2.19-60.71,31.95-58.52,66.46c0.11,1.75,0.59,3.37,0.84,5.07c0.66,4.49,1.76,8.77,3.3,12.88
				c-1.94-0.18-3.81-0.58-5.79-0.58c-34.58,0-62.62,28.03-62.62,62.62c0,14.65,5.04,28.11,13.47,38.77l131.35-101.08
				C1972.91,114.09,1983.84,107.53,2005.84,107.53z"/>
			<path class="st4" d="M2071.54,179.74c-2.19-34.51-31.95-60.71-66.46-58.52c-0.91,0.06-1.74,0.34-2.63,0.44
				c-6.6,0.7-12.83,2.41-18.62,4.97c-3.55,1.57-6.86,3.5-10.01,5.66l-132.35,100.96c10.59,8.19,23.86,13.08,38.28,13.08
				c7.28,0,14.17-1.48,20.67-3.77c4-1.41,7.8-3.16,11.38-5.31l65.41-51.16c0.08-0.06,0.19-0.07,0.28-0.13
				c3.31-2.24,7.84-1.53,10.23,1.71c1.05,1.42,1.4,3.09,1.34,4.73c-0.08,2.21-1.01,4.37-2.92,5.78l-28.09,22.07
				c12.28,15.93,33.37,27.33,54.96,25.96C2047.54,244.01,2073.74,214.25,2071.54,179.74z"/>
		</g>
		<g>
			<path class="st2" d="M1144.5,115.36c-3.71-11.46-9.7-22.05-17.61-31.14c-8.73-9.78-19.61-17.4-31.79-22.27
				c-13.17-5.56-29.12-8.34-47.85-8.33l-55.7,0.02l0.07,186.35l64.81-0.02c12.26,0.06,24.43-2.04,35.95-6.22
				c11.04-3.98,21.19-10.09,29.87-17.99c8.67-7.95,15.61-17.61,20.37-28.37c5.12-11.77,7.66-24.51,7.46-37.35
				C1150.05,138.26,1148.17,126.55,1144.5,115.36 M1107.68,172.21c-2.74,6.87-7.07,13-12.65,17.85
				c-5.75,4.88-12.42,8.54-19.62,10.77c-8.2,2.54-16.74,3.78-25.32,3.68l-21.77,0.01l-0.05-115.71l29.88-0.01
				c5.23,0.15,10.42,0.95,15.45,2.4c6.44,1.78,12.49,4.74,17.86,8.73c6.23,4.71,11.26,10.83,14.69,17.85
				c3.97,7.68,5.96,17.6,5.96,29.75C1112.26,155.97,1110.75,164.35,1107.68,172.21"/>
			<path class="st2" d="M1266.57,53.53l-80.79,186.38l34.83-0.01l14.59-35.08l59.51-0.02l13.84,35.07l40.92-0.02l-80.94-186.32
				H1266.57z M1247.56,175.09l18.18-43.72l17.24,43.7L1247.56,175.09z"/>
			<polygon class="st2" points="1505.36,53.44 1379.78,53.49 1379.79,88.93 1423.34,88.92 1423.4,239.82 1460.11,239.81 
				1460.05,88.9 1505.37,88.89 			"/>
			<path class="st2" d="M1658.58,239.73l40.92-0.01L1618.56,53.4l-1.95,0l-80.79,186.38l34.83-0.01l14.59-35.08l59.51-0.02
				L1658.58,239.73z M1597.6,174.96l18.18-43.71l17.24,43.7L1597.6,174.96z"/>
			<path class="st2" d="M544.69,160.15c5.07-6.1,8.85-13.17,11.13-20.77c2.24-7.39,3.39-15.07,3.41-22.79
				c0.13-8.88-1.51-17.71-4.82-25.95c-3.13-7.56-7.94-14.31-14.06-19.74c-6.68-5.76-14.48-10.07-22.92-12.65
				c-10.09-3.09-20.6-4.58-31.14-4.42l-56.46,0.02l0.07,186.35l36.71-0.01l-0.02-59.25l24.45-0.01l39.38,59.23l42.79-0.02
				l-43.4-67.66C535.44,169.29,540.48,165.12,544.69,160.15 M466.57,145.5l-0.02-56.21l26.33-0.01c5.31-0.25,10.58,0.88,15.32,3.29
				c3.49,1.9,6.42,4.7,8.49,8.1c1.75,2.93,2.99,6.14,3.67,9.49c0.53,2.54,0.83,5.13,0.89,7.72c-0.04,2.96-0.51,5.9-1.39,8.73
				c-0.98,3.24-2.52,6.28-4.55,8.99c-2.3,3.03-5.3,5.46-8.73,7.09c-4.36,2-9.13,2.95-13.93,2.79L466.57,145.5z"/>
			<polygon class="st2" points="717.89,204.65 717.88,164.39 797.89,164.36 797.87,128.91 717.86,128.94 717.85,89.19 808.24,89.16 
				808.22,53.71 681.12,53.76 681.2,240.11 811.84,240.06 811.83,204.61 			"/>
			<path class="st2" d="M639.53,208.73c-3.17-3.27-7.48-5.18-12.03-5.31c-4.71,0.06-9.21,1.97-12.53,5.32
				c-3.71,3.36-5.79,8.16-5.69,13.17c-0.22,5.07,1.88,9.96,5.7,13.29c3.42,3.14,7.89,4.9,12.53,4.93c4.48-0.1,8.77-1.86,12.03-4.94
				c3.82-3.34,5.91-8.23,5.69-13.3C645.33,216.88,643.25,212.08,639.53,208.73"/>
			<path class="st2" d="M878.04,208.64c-3.16-3.27-7.48-5.17-12.03-5.31c-4.71,0.06-9.21,1.97-12.53,5.32
				c-3.72,3.36-5.79,8.16-5.69,13.17c-0.22,5.07,1.88,9.96,5.7,13.29c3.42,3.14,7.89,4.9,12.53,4.93c4.48-0.1,8.77-1.87,12.03-4.94
				c3.82-3.34,5.91-8.23,5.69-13.3C883.84,216.79,881.76,211.99,878.04,208.64"/>
			<polygon class="st3" points="138.99,143.36 85.53,172.89 110.86,172.88 110.87,198.22 85.53,198.23 85.52,172.89 50.36,192.32 
				138.14,240.32 226.77,191.36 			"/>
			<rect x="60.18" y="147.56" class="st3" width="25.34" height="25.34"/>
			<polygon class="st0" points="85.52,172.89 85.52,172.89 85.53,172.89 			"/>
			<rect x="88.38" y="113.49" class="st4" width="25.34" height="25.34"/>
			<rect x="168.86" y="83.58" class="st5" width="29.88" height="29.88"/>
			<rect x="138.99" y="113.47" class="st3" width="29.88" height="29.88"/>
			<rect x="138.96" y="43.43" class="st3" width="29.88" height="29.88"/>
		</g>
	</g>
</g>
</svg>
